<svg width="378" height="468" viewBox="0 0 378 468" fill="none" xmlns="http://www.w3.org/2000/svg">
<g id="Group 101">
<rect id="Rectangle 21" width="378" height="468" rx="48" fill="#A3E6D3"/>
<g id="Group 75">
<g id="Rectangle 15" filter="url(#filter0_d_101_29)">
<rect x="40" y="124" width="301" height="202" rx="14" fill="#EEFFFA"/>
</g>
<path id="Rectangle 16" d="M40 138C40 130.268 46.268 124 54 124H327C334.732 124 341 130.268 341 138V157H40V138Z" fill="#88C8B6"/>
<rect id="Rectangle 51" x="142" y="171" width="21" height="9" rx="2" fill="#A3E6D3"/>
<rect id="Rectangle 60" x="176" y="171" width="21" height="9" rx="2" fill="#A3E6D3"/>
<rect id="Rectangle 61" x="210" y="171" width="21" height="9" rx="2" fill="#A3E6D3"/>
<rect id="Rectangle 52" x="118" y="196" width="137" height="9" rx="2" fill="#A3E6D3"/>
<rect id="Rectangle 62" x="153" y="216" width="79" height="9" rx="2" fill="#C1ECE0"/>
<g id="Group 92">
<rect id="Rectangle 53" x="71" y="243" width="72" height="56.9455" rx="9" fill="#A3E6D3"/>
<ellipse id="Ellipse 26" cx="107.327" cy="270.491" rx="8.83636" ry="9.16364" fill="white"/>
<path id="Polygon 1" d="M112.236 271.145L105.364 275.113L105.364 267.177L112.236 271.145Z" fill="#A3E6D3"/>
</g>
<g id="Group 93">
<rect id="Rectangle 53_2" x="157" y="243" width="72" height="56.9455" rx="9" fill="#A3E6D3"/>
<ellipse id="Ellipse 26_2" cx="193.327" cy="270.491" rx="8.83636" ry="9.16364" fill="white"/>
<path id="Polygon 1_2" d="M198.236 271.145L191.364 275.113L191.364 267.177L198.236 271.145Z" fill="#A3E6D3"/>
</g>
<g id="Group 94">
<rect id="Rectangle 53_3" x="239" y="243" width="72" height="56.9455" rx="9" fill="#A3E6D3"/>
<ellipse id="Ellipse 26_3" cx="275.327" cy="270.491" rx="8.83636" ry="9.16364" fill="white"/>
<path id="Polygon 1_3" d="M280.236 271.145L273.364 275.113L273.364 267.177L280.236 271.145Z" fill="#A3E6D3"/>
</g>
<rect id="Rectangle 58" x="228" y="360" width="86" height="9" fill="#A3E6D3"/>
<rect id="Rectangle 59" x="248" y="376" width="66" height="9" fill="#A3E6D3"/>
</g>
<path id="Build" d="M141.88 423.544C143.139 423.779 144.173 424.408 144.984 425.432C145.795 426.456 146.2 427.629 146.2 428.952C146.2 430.147 145.901 431.203 145.304 432.12C144.728 433.016 143.885 433.72 142.776 434.232C141.667 434.744 140.355 435 138.84 435H129.208V412.664H138.424C139.939 412.664 141.24 412.909 142.328 413.4C143.437 413.891 144.269 414.573 144.824 415.448C145.4 416.323 145.688 417.315 145.688 418.424C145.688 419.725 145.336 420.813 144.632 421.688C143.949 422.563 143.032 423.181 141.88 423.544ZM133.688 421.88H137.784C138.851 421.88 139.672 421.645 140.248 421.176C140.824 420.685 141.112 419.992 141.112 419.096C141.112 418.2 140.824 417.507 140.248 417.016C139.672 416.525 138.851 416.28 137.784 416.28H133.688V421.88ZM138.2 431.352C139.288 431.352 140.131 431.096 140.728 430.584C141.347 430.072 141.656 429.347 141.656 428.408C141.656 427.448 141.336 426.701 140.696 426.168C140.056 425.613 139.192 425.336 138.104 425.336H133.688V431.352H138.2ZM166.507 417.272V435H161.995V432.76C161.419 433.528 160.661 434.136 159.723 434.584C158.805 435.011 157.803 435.224 156.715 435.224C155.328 435.224 154.101 434.936 153.035 434.36C151.968 433.763 151.125 432.899 150.507 431.768C149.909 430.616 149.611 429.251 149.611 427.672V417.272H154.091V427.032C154.091 428.44 154.443 429.528 155.147 430.296C155.851 431.043 156.811 431.416 158.027 431.416C159.264 431.416 160.235 431.043 160.939 430.296C161.643 429.528 161.995 428.44 161.995 427.032V417.272H166.507ZM173.199 415.16C172.409 415.16 171.748 414.915 171.215 414.424C170.703 413.912 170.447 413.283 170.447 412.536C170.447 411.789 170.703 411.171 171.215 410.68C171.748 410.168 172.409 409.912 173.199 409.912C173.988 409.912 174.639 410.168 175.151 410.68C175.684 411.171 175.951 411.789 175.951 412.536C175.951 413.283 175.684 413.912 175.151 414.424C174.639 414.915 173.988 415.16 173.199 415.16ZM175.407 417.272V435H170.927V417.272H175.407ZM184.313 411.32V435H179.833V411.32H184.313ZM187.587 426.072C187.587 424.28 187.939 422.691 188.643 421.304C189.369 419.917 190.35 418.851 191.587 418.104C192.825 417.357 194.201 416.984 195.715 416.984C196.867 416.984 197.966 417.24 199.011 417.752C200.057 418.243 200.889 418.904 201.507 419.736V411.32H206.051V435H201.507V432.376C200.953 433.251 200.174 433.955 199.171 434.488C198.169 435.021 197.006 435.288 195.683 435.288C194.19 435.288 192.825 434.904 191.587 434.136C190.35 433.368 189.369 432.291 188.643 430.904C187.939 429.496 187.587 427.885 187.587 426.072ZM201.539 426.136C201.539 425.048 201.326 424.12 200.899 423.352C200.473 422.563 199.897 421.965 199.171 421.56C198.446 421.133 197.667 420.92 196.835 420.92C196.003 420.92 195.235 421.123 194.531 421.528C193.827 421.933 193.251 422.531 192.803 423.32C192.377 424.088 192.163 425.005 192.163 426.072C192.163 427.139 192.377 428.077 192.803 428.888C193.251 429.677 193.827 430.285 194.531 430.712C195.257 431.139 196.025 431.352 196.835 431.352C197.667 431.352 198.446 431.149 199.171 430.744C199.897 430.317 200.473 429.72 200.899 428.952C201.326 428.163 201.539 427.224 201.539 426.136Z" fill="#0B3A3C"/>
<circle id="Ellipse 27" cx="56.5" cy="139.5" r="2.5" fill="#DE1010"/>
<circle id="Ellipse 28" cx="66.5" cy="139.5" r="2.5" fill="#FCB101"/>
<circle id="Ellipse 29" cx="76.5" cy="139.5" r="2.5" fill="#59C15E"/>
<g id="Group 97">
<path id="Polygon 2" d="M263.144 210.575L289.72 226.343L276.704 228.583L270.88 240.777L263.144 210.575Z" fill="#025559"/>
<rect id="Rectangle 92" x="281.762" y="245.294" width="64" height="32" rx="8" fill="#025559"/>
<path id="John" d="M301.14 256.53V263.88C301.14 264.9 300.845 265.695 300.255 266.265C299.665 266.825 298.875 267.105 297.885 267.105C296.885 267.105 296.075 266.815 295.455 266.235C294.845 265.655 294.54 264.845 294.54 263.805H296.64C296.65 264.255 296.755 264.605 296.955 264.855C297.165 265.105 297.465 265.23 297.855 265.23C298.235 265.23 298.525 265.11 298.725 264.87C298.925 264.63 299.025 264.3 299.025 263.88V256.53H301.14ZM307.28 267.135C306.48 267.135 305.76 266.96 305.12 266.61C304.48 266.25 303.975 265.745 303.605 265.095C303.245 264.445 303.065 263.695 303.065 262.845C303.065 261.995 303.25 261.245 303.62 260.595C304 259.945 304.515 259.445 305.165 259.095C305.815 258.735 306.54 258.555 307.34 258.555C308.14 258.555 308.865 258.735 309.515 259.095C310.165 259.445 310.675 259.945 311.045 260.595C311.425 261.245 311.615 261.995 311.615 262.845C311.615 263.695 311.42 264.445 311.03 265.095C310.65 265.745 310.13 266.25 309.47 266.61C308.82 266.96 308.09 267.135 307.28 267.135ZM307.28 265.305C307.66 265.305 308.015 265.215 308.345 265.035C308.685 264.845 308.955 264.565 309.155 264.195C309.355 263.825 309.455 263.375 309.455 262.845C309.455 262.055 309.245 261.45 308.825 261.03C308.415 260.6 307.91 260.385 307.31 260.385C306.71 260.385 306.205 260.6 305.795 261.03C305.395 261.45 305.195 262.055 305.195 262.845C305.195 263.635 305.39 264.245 305.78 264.675C306.18 265.095 306.68 265.305 307.28 265.305ZM317.835 258.57C318.465 258.57 319.025 258.71 319.515 258.99C320.005 259.26 320.385 259.665 320.655 260.205C320.935 260.735 321.075 261.375 321.075 262.125V267H318.975V262.41C318.975 261.75 318.81 261.245 318.48 260.895C318.15 260.535 317.7 260.355 317.13 260.355C316.55 260.355 316.09 260.535 315.75 260.895C315.42 261.245 315.255 261.75 315.255 262.41V267H313.155V255.9H315.255V259.725C315.525 259.365 315.885 259.085 316.335 258.885C316.785 258.675 317.285 258.57 317.835 258.57ZM327.677 258.57C328.667 258.57 329.467 258.885 330.077 259.515C330.687 260.135 330.992 261.005 330.992 262.125V267H328.892V262.41C328.892 261.75 328.727 261.245 328.397 260.895C328.067 260.535 327.617 260.355 327.047 260.355C326.467 260.355 326.007 260.535 325.667 260.895C325.337 261.245 325.172 261.75 325.172 262.41V267H323.072V258.69H325.172V259.725C325.452 259.365 325.807 259.085 326.237 258.885C326.677 258.675 327.157 258.57 327.677 258.57Z" fill="white"/>
</g>
</g>
<defs>
<filter id="filter0_d_101_29" x="20" y="108" width="341" height="242" filterUnits="userSpaceOnUse" color-interpolation-filters="sRGB">
<feFlood flood-opacity="0" result="BackgroundImageFix"/>
<feColorMatrix in="SourceAlpha" type="matrix" values="0 0 0 0 0 0 0 0 0 0 0 0 0 0 0 0 0 0 127 0" result="hardAlpha"/>
<feOffset dy="4"/>
<feGaussianBlur stdDeviation="10"/>
<feComposite in2="hardAlpha" operator="out"/>
<feColorMatrix type="matrix" values="0 0 0 0 0 0 0 0 0 0 0 0 0 0 0 0 0 0 0.25 0"/>
<feBlend mode="normal" in2="BackgroundImageFix" result="effect1_dropShadow_101_29"/>
<feBlend mode="normal" in="SourceGraphic" in2="effect1_dropShadow_101_29" result="shape"/>
</filter>
</defs>
</svg>
