<svg width="378" height="468" viewBox="0 0 378 468" fill="none" xmlns="http://www.w3.org/2000/svg">
<rect width="378" height="468" rx="48" fill="#CEFFD2"/>
<path d="M146.579 403.664C148.925 403.664 150.984 404.123 152.755 405.04C154.547 405.957 155.923 407.269 156.883 408.976C157.864 410.661 158.355 412.624 158.355 414.864C158.355 417.104 157.864 419.067 156.883 420.752C155.923 422.416 154.547 423.707 152.755 424.624C150.984 425.541 148.925 426 146.579 426H138.771V403.664H146.579ZM146.419 422.192C148.765 422.192 150.579 421.552 151.859 420.272C153.139 418.992 153.779 417.189 153.779 414.864C153.779 412.539 153.139 410.725 151.859 409.424C150.579 408.101 148.765 407.44 146.419 407.44H143.251V422.192H146.419ZM178.188 416.752C178.188 417.392 178.145 417.968 178.06 418.48H165.1C165.207 419.76 165.655 420.763 166.444 421.488C167.233 422.213 168.204 422.576 169.356 422.576C171.02 422.576 172.204 421.861 172.908 420.432H177.74C177.228 422.139 176.247 423.547 174.796 424.656C173.345 425.744 171.564 426.288 169.452 426.288C167.745 426.288 166.209 425.915 164.844 425.168C163.5 424.4 162.444 423.323 161.676 421.936C160.929 420.549 160.556 418.949 160.556 417.136C160.556 415.301 160.929 413.691 161.676 412.304C162.423 410.917 163.468 409.851 164.812 409.104C166.156 408.357 167.703 407.984 169.452 407.984C171.137 407.984 172.641 408.347 173.964 409.072C175.308 409.797 176.343 410.832 177.068 412.176C177.815 413.499 178.188 415.024 178.188 416.752ZM173.548 415.472C173.527 414.32 173.111 413.403 172.3 412.72C171.489 412.016 170.497 411.664 169.324 411.664C168.215 411.664 167.276 412.005 166.508 412.688C165.761 413.349 165.303 414.277 165.132 415.472H173.548ZM188.242 426.288C186.791 426.288 185.49 426.032 184.338 425.52C183.186 424.987 182.269 424.272 181.586 423.376C180.925 422.48 180.562 421.488 180.498 420.4H185.01C185.095 421.083 185.426 421.648 186.002 422.096C186.599 422.544 187.335 422.768 188.21 422.768C189.063 422.768 189.725 422.597 190.194 422.256C190.685 421.915 190.93 421.477 190.93 420.944C190.93 420.368 190.631 419.941 190.034 419.664C189.458 419.365 188.53 419.045 187.25 418.704C185.927 418.384 184.839 418.053 183.986 417.712C183.154 417.371 182.429 416.848 181.81 416.144C181.213 415.44 180.914 414.491 180.914 413.296C180.914 412.315 181.191 411.419 181.746 410.608C182.322 409.797 183.133 409.157 184.178 408.688C185.245 408.219 186.493 407.984 187.922 407.984C190.034 407.984 191.719 408.517 192.978 409.584C194.237 410.629 194.93 412.048 195.058 413.84H190.77C190.706 413.136 190.407 412.581 189.874 412.176C189.362 411.749 188.669 411.536 187.794 411.536C186.983 411.536 186.354 411.685 185.906 411.984C185.479 412.283 185.266 412.699 185.266 413.232C185.266 413.829 185.565 414.288 186.162 414.608C186.759 414.907 187.687 415.216 188.946 415.536C190.226 415.856 191.282 416.187 192.114 416.528C192.946 416.869 193.661 417.403 194.258 418.128C194.877 418.832 195.197 419.771 195.218 420.944C195.218 421.968 194.93 422.885 194.354 423.696C193.799 424.507 192.989 425.147 191.922 425.616C190.877 426.064 189.65 426.288 188.242 426.288ZM201.168 406.16C200.378 406.16 199.717 405.915 199.184 405.424C198.672 404.912 198.416 404.283 198.416 403.536C198.416 402.789 198.672 402.171 199.184 401.68C199.717 401.168 200.378 400.912 201.168 400.912C201.957 400.912 202.608 401.168 203.12 401.68C203.653 402.171 203.92 402.789 203.92 403.536C203.92 404.283 203.653 404.912 203.12 405.424C202.608 405.915 201.957 406.16 201.168 406.16ZM203.376 408.272V426H198.896V408.272H203.376ZM214.746 407.984C216.068 407.984 217.231 408.251 218.234 408.784C219.236 409.296 220.026 409.968 220.602 410.8V408.272H225.114V426.128C225.114 427.771 224.783 429.232 224.122 430.512C223.46 431.813 222.468 432.837 221.146 433.584C219.823 434.352 218.223 434.736 216.346 434.736C213.828 434.736 211.759 434.149 210.138 432.976C208.538 431.803 207.631 430.203 207.418 428.176H211.866C212.1 428.987 212.602 429.627 213.37 430.096C214.159 430.587 215.108 430.832 216.218 430.832C217.519 430.832 218.575 430.437 219.386 429.648C220.196 428.88 220.602 427.707 220.602 426.128V423.376C220.026 424.208 219.226 424.901 218.202 425.456C217.199 426.011 216.047 426.288 214.746 426.288C213.252 426.288 211.887 425.904 210.65 425.136C209.412 424.368 208.431 423.291 207.706 421.904C207.002 420.496 206.65 418.885 206.65 417.072C206.65 415.28 207.002 413.691 207.706 412.304C208.431 410.917 209.402 409.851 210.618 409.104C211.855 408.357 213.231 407.984 214.746 407.984ZM220.602 417.136C220.602 416.048 220.388 415.12 219.962 414.352C219.535 413.563 218.959 412.965 218.234 412.56C217.508 412.133 216.73 411.92 215.898 411.92C215.066 411.92 214.298 412.123 213.594 412.528C212.89 412.933 212.314 413.531 211.866 414.32C211.439 415.088 211.226 416.005 211.226 417.072C211.226 418.139 211.439 419.077 211.866 419.888C212.314 420.677 212.89 421.285 213.594 421.712C214.319 422.139 215.087 422.352 215.898 422.352C216.73 422.352 217.508 422.149 218.234 421.744C218.959 421.317 219.535 420.72 219.962 419.952C220.388 419.163 220.602 418.224 220.602 417.136ZM239.313 408.016C241.425 408.016 243.132 408.688 244.433 410.032C245.735 411.355 246.385 413.211 246.385 415.6V426H241.905V416.208C241.905 414.8 241.553 413.723 240.849 412.976C240.145 412.208 239.185 411.824 237.969 411.824C236.732 411.824 235.751 412.208 235.025 412.976C234.321 413.723 233.969 414.8 233.969 416.208V426H229.489V408.272H233.969V410.48C234.567 409.712 235.324 409.115 236.241 408.688C237.18 408.24 238.204 408.016 239.313 408.016Z" fill="#37703A"/>
<g filter="url(#filter0_d_101_28)">
<rect x="73" y="136.796" width="100" height="180" rx="14" transform="rotate(-3.89708 73 136.796)" fill="#F6FFF7"/>
</g>
<rect x="83.9719" y="180.151" width="84" height="39" rx="9" transform="rotate(-3.89708 83.9719 180.151)" fill="#67E571"/>
<rect x="107.188" y="226.681" width="42" height="9" rx="2" transform="rotate(-3.89708 107.188 226.681)" fill="#67E571"/>
<rect x="111.402" y="288.537" width="42" height="16" rx="4" transform="rotate(-3.89708 111.402 288.537)" fill="#67E571"/>
<rect x="111.116" y="137.207" width="21" height="6" rx="3" transform="rotate(-3.89708 111.116 137.207)" fill="#67E571"/>
<circle cx="145.774" cy="138.354" r="2.5" transform="rotate(-3.89708 145.774 138.354)" fill="#67E571"/>
<g filter="url(#filter1_d_101_28)">
<rect x="229.694" y="130.461" width="100" height="180" rx="14" transform="rotate(14.2511 229.694 130.461)" fill="#F6FFF7"/>
</g>
<rect x="221.216" y="192.276" width="84" height="39" rx="9" transform="rotate(14.2511 221.216 192.276)" fill="#67E571"/>
<rect x="204.23" y="259.153" width="84" height="39" rx="9" transform="rotate(14.2511 204.23 259.153)" fill="#67E571"/>
<rect x="226.878" y="169.984" width="42" height="9" rx="2" transform="rotate(14.2511 226.878 169.984)" fill="#67E571"/>
<rect x="209.892" y="236.861" width="42" height="9" rx="2" transform="rotate(14.2511 209.892 236.861)" fill="#67E571"/>
<rect x="265.786" y="142.723" width="21" height="6" rx="3" transform="rotate(14.2511 265.786 142.723)" fill="#67E571"/>
<circle cx="298.363" cy="154.608" r="2.5" transform="rotate(14.2511 298.363 154.608)" fill="#67E571"/>
<path d="M125.144 46.5749L151.72 62.3428L138.704 64.5827L132.88 76.7768L125.144 46.5749Z" fill="#C8FC01"/>
<rect x="143.762" y="81.2942" width="64" height="32" rx="8" fill="#C8FC01"/>
<path d="M168.45 92.53V103H166.35V96.19L163.545 103H161.955L159.135 96.19V103H157.035V92.53H159.42L162.75 100.315L166.08 92.53H168.45ZM169.986 98.815C169.986 97.975 170.151 97.23 170.481 96.58C170.821 95.93 171.276 95.43 171.846 95.08C172.426 94.73 173.071 94.555 173.781 94.555C174.401 94.555 174.941 94.68 175.401 94.93C175.871 95.18 176.246 95.495 176.526 95.875V94.69H178.641V103H176.526V101.785C176.256 102.175 175.881 102.5 175.401 102.76C174.931 103.01 174.386 103.135 173.766 103.135C173.066 103.135 172.426 102.955 171.846 102.595C171.276 102.235 170.821 101.73 170.481 101.08C170.151 100.42 169.986 99.665 169.986 98.815ZM176.526 98.845C176.526 98.335 176.426 97.9 176.226 97.54C176.026 97.17 175.756 96.89 175.416 96.7C175.076 96.5 174.711 96.4 174.321 96.4C173.931 96.4 173.571 96.495 173.241 96.685C172.911 96.875 172.641 97.155 172.431 97.525C172.231 97.885 172.131 98.315 172.131 98.815C172.131 99.315 172.231 99.755 172.431 100.135C172.641 100.505 172.911 100.79 173.241 100.99C173.581 101.19 173.941 101.29 174.321 101.29C174.711 101.29 175.076 101.195 175.416 101.005C175.756 100.805 176.026 100.525 176.226 100.165C176.426 99.795 176.526 99.355 176.526 98.845ZM182.792 95.98C183.062 95.54 183.412 95.195 183.842 94.945C184.282 94.695 184.782 94.57 185.342 94.57V96.775H184.787C184.127 96.775 183.627 96.93 183.287 97.24C182.957 97.55 182.792 98.09 182.792 98.86V103H180.692V94.69H182.792V95.98ZM191.677 103L188.857 99.46V103H186.757V91.9H188.857V98.215L191.647 94.69H194.377L190.717 98.86L194.407 103H191.677Z" fill="#0B3A3C"/>
<defs>
<filter id="filter0_d_101_28" x="54.9186" y="115.919" width="148.165" height="222.543" filterUnits="userSpaceOnUse" color-interpolation-filters="sRGB">
<feFlood flood-opacity="0" result="BackgroundImageFix"/>
<feColorMatrix in="SourceAlpha" type="matrix" values="0 0 0 0 0 0 0 0 0 0 0 0 0 0 0 0 0 0 127 0" result="hardAlpha"/>
<feOffset dy="4"/>
<feGaussianBlur stdDeviation="9.5"/>
<feComposite in2="hardAlpha" operator="out"/>
<feColorMatrix type="matrix" values="0 0 0 0 0 0 0 0 0 0 0 0 0 0 0 0 0 0 0.25 0"/>
<feBlend mode="normal" in2="BackgroundImageFix" result="effect1_dropShadow_101_28"/>
<feBlend mode="normal" in="SourceGraphic" in2="effect1_dropShadow_101_28" result="shape"/>
</filter>
<filter id="filter1_d_101_28" x="170.395" y="119.473" width="171.209" height="229.053" filterUnits="userSpaceOnUse" color-interpolation-filters="sRGB">
<feFlood flood-opacity="0" result="BackgroundImageFix"/>
<feColorMatrix in="SourceAlpha" type="matrix" values="0 0 0 0 0 0 0 0 0 0 0 0 0 0 0 0 0 0 127 0" result="hardAlpha"/>
<feOffset dy="4"/>
<feGaussianBlur stdDeviation="9"/>
<feComposite in2="hardAlpha" operator="out"/>
<feColorMatrix type="matrix" values="0 0 0 0 0 0 0 0 0 0 0 0 0 0 0 0 0 0 0.25 0"/>
<feBlend mode="normal" in2="BackgroundImageFix" result="effect1_dropShadow_101_28"/>
<feBlend mode="normal" in="SourceGraphic" in2="effect1_dropShadow_101_28" result="shape"/>
</filter>
</defs>
</svg>
